<svg xmlns="http://www.w3.org/2000/svg" viewBox="0 0 64 64" fill="#EDDBB5">
  <path d="M32 4C16.536 4 4 16.536 4 32s12.536 28 28 28 28-12.536 28-28S47.464 4 32 4zm0 6c12.15 0 22 9.85 22 22s-9.85 22-22 22S10 44.15 10 32 19.85 10 32 10z"/>
  <path d="M32 18c-5.523 0-10 4.477-10 10 0 1.657 1.343 3 3 3s3-1.343 3-3c0-2.209 1.791-4 4-4s4 1.791 4 4c0 1.46-.8 2.33-2.8 3.66C31.4 32.88 29 34.7 29 38c0 1.657 1.343 3 3 3s3-1.343 3-3c0-1.46.8-2.33 2.8-3.66C39.6 33.12 42 31.3 42 28c0-5.523-4.477-10-10-10z"/>
  <circle cx="32" cy="46" r="3"/>
</svg>
